<svg viewBox="0 0 32 32" xmlns="http://www.w3.org/2000/svg" data-name="Capa 1" id="Capa_1"><defs><style>.cls-1{fill:#1f1f21;}.cls-2{fill:#baa781;}</style></defs><rect rx="16" height="32" width="32" class="cls-1"></rect><path d="M13.93,8.82a4.29,4.29,0,0,0,.42.6,13,13,0,0,0,1,1.09l.79.74c.45.41.89.82,1.32,1.25a9.69,9.69,0,0,1,1.19,1.44,3.3,3.3,0,0,1,.44.93A1.89,1.89,0,0,1,19,16.21a3.89,3.89,0,0,1-.71,1.05,12.51,12.51,0,0,1-1.12,1.06l-.7.57s0,.06,0,.09c.38.35.77.69,1.12,1.07a5.18,5.18,0,0,1,.81,1.11,1.84,1.84,0,0,1,.19.79A1.71,1.71,0,0,1,18.16,23l-.09.12s0,0-.06,0a8.29,8.29,0,0,0-1.55-1.79c-.71-.68-1.45-1.33-2.13-2a7.15,7.15,0,0,1-.76-.89,5.72,5.72,0,0,1-.6-1,1.93,1.93,0,0,1,0-1.58,4.06,4.06,0,0,1,.73-1.1,11.85,11.85,0,0,1,1.53-1.39l.3-.24s0,0,0-.09c-.35-.31-.69-.62-1-.95a4.93,4.93,0,0,1-.9-1.17,2.08,2.08,0,0,1-.22-.81A1.68,1.68,0,0,1,13.74,9l.17-.21m3.53,7.06a2.34,2.34,0,0,0-.47-1.4,7.74,7.74,0,0,0-1.16-1.2s0,0-.06,0l-.25.35a6.36,6.36,0,0,0-.77,1.43,2.71,2.71,0,0,0-.18,1.32,2.58,2.58,0,0,0,.63,1.38,12.68,12.68,0,0,0,1,1s.05,0,.08,0l.3-.44a6.84,6.84,0,0,0,.59-1.06,3.34,3.34,0,0,0,.31-1.35" class="cls-2"></path><path d="M16.36,28.07a2.72,2.72,0,0,0,.09-.69A3.63,3.63,0,0,0,16,25.67a7.46,7.46,0,0,0-.91-1.33,26.83,26.83,0,0,0-2-2,19.08,19.08,0,0,1-2-2.18,5.24,5.24,0,0,1-.87-1.61,2.64,2.64,0,0,1,.14-2.08,3.78,3.78,0,0,1,.89-1.1,2.78,2.78,0,0,1,.27-.21l-.07.19a2.79,2.79,0,0,0-.21,1.28,4,4,0,0,0,.45,1.49,6.26,6.26,0,0,0,1.07,1.49c.51.55,1.08,1,1.62,1.55a20.07,20.07,0,0,1,2,2,5.43,5.43,0,0,1,.75,1.19,2.48,2.48,0,0,1,.18.77,4.57,4.57,0,0,1-.6,2.45,2.69,2.69,0,0,1-.28.46.12.12,0,0,1-.06.06" class="cls-2"></path><path d="M20.45,16.86a3.53,3.53,0,0,0,.22-.59,3.13,3.13,0,0,0-.13-1.84,5.64,5.64,0,0,0-1-1.71,15.86,15.86,0,0,0-1.42-1.42l-1.16-1.08c-.36-.33-.69-.67-1-1A7.09,7.09,0,0,1,15,7.93a2.68,2.68,0,0,1-.31-1.57A5.1,5.1,0,0,1,15.5,4l.11-.13a1.43,1.43,0,0,1,0,.22A3.41,3.41,0,0,0,16,6.32a7.28,7.28,0,0,0,.93,1.36c.42.5.89,1,1.37,1.44s1.13,1.07,1.67,1.64a10,10,0,0,1,1.35,1.69,4.13,4.13,0,0,1,.57,1.35,2.64,2.64,0,0,1-.44,2.11,4.88,4.88,0,0,1-.92.95l0,0" class="cls-2"></path></svg>