<svg xmlns="http://www.w3.org/2000/svg" fill="none" viewBox="0 0 98 62" height="62" width="98">
<path fill="#1F1F21" d="M55.44 58.3601V61.6901H54.8301C54.8001 61.1301 54.8301 60.5801 54.7901 60.0301C54.4101 60.4101 54.1 60.8401 53.73 61.2501C53.38 60.8301 53.05 60.4301 52.68 59.9901C52.67 60.0901 52.66 60.1401 52.66 60.1901C52.66 60.6201 52.66 61.0601 52.66 61.4901C52.66 61.5601 52.66 61.6301 52.66 61.7001H52.05V58.3601C52.12 58.3601 52.15 58.4301 52.19 58.4801C52.66 59.0301 53.13 59.5801 53.6 60.1301C53.64 60.1801 53.69 60.2301 53.75 60.3001C54.31 59.6401 54.86 59.0001 55.41 58.3501C55.41 58.3501 55.43 58.3601 55.44 58.3701"></path>
<path fill="#1F1F21" d="M72.6 60.5701C72.88 60.9501 73.14 61.3101 73.43 61.7001C73.17 61.7001 72.95 61.7001 72.74 61.7001C72.69 61.7001 72.64 61.6401 72.61 61.6001C72.44 61.3701 72.27 61.1301 72.09 60.9001C71.84 60.5601 71.98 60.6301 71.55 60.6201C71.45 60.6201 71.36 60.6201 71.24 60.6201C71.19 60.9801 71.24 61.3401 71.21 61.7001H70.64C70.6 61.5701 70.58 58.6001 70.63 58.3401C70.67 58.3401 70.71 58.3301 70.76 58.3301C71.23 58.3301 71.7 58.3301 72.17 58.3301C72.62 58.3301 72.98 58.5201 73.18 58.9301C73.39 59.3501 73.36 59.7801 73.1 60.1801C72.98 60.3601 72.81 60.4701 72.6 60.5801M71.24 60.0501C71.59 60.0501 71.91 60.0501 72.24 60.0501C72.39 60.0501 72.5 59.9501 72.58 59.8201C72.68 59.6701 72.69 59.5101 72.67 59.3401C72.63 59.0501 72.45 58.8801 72.16 58.8701C71.9 58.8701 71.65 58.8701 71.39 58.8701C71.35 58.8701 71.3 58.8801 71.24 58.8901C71.24 59.2801 71.22 59.6601 71.24 60.0501Z"></path>
<path fill="#1F1F21" d="M27.1 60.5701C27.38 60.9501 27.64 61.3101 27.93 61.7001C27.67 61.7001 27.45 61.7001 27.24 61.7001C27.19 61.7001 27.14 61.6401 27.11 61.6001C26.94 61.3701 26.77 61.1301 26.59 60.9001C26.34 60.5601 26.48 60.6301 26.05 60.6201C25.95 60.6201 25.86 60.6201 25.74 60.6201C25.69 60.9801 25.74 61.3401 25.71 61.7001H25.14C25.1 61.5701 25.08 58.6001 25.13 58.3401C25.17 58.3401 25.21 58.3301 25.26 58.3301C25.73 58.3301 26.2 58.3301 26.67 58.3301C27.12 58.3301 27.48 58.5201 27.68 58.9301C27.89 59.3501 27.86 59.7801 27.6 60.1801C27.49 60.3601 27.31 60.4701 27.1 60.5801M25.74 60.0501C26.09 60.0501 26.41 60.0501 26.74 60.0501C26.89 60.0501 27 59.9501 27.08 59.8201C27.18 59.6701 27.19 59.5101 27.17 59.3401C27.13 59.0501 26.95 58.8801 26.66 58.8701C26.4 58.8701 26.15 58.8701 25.89 58.8701C25.85 58.8701 25.8 58.8801 25.74 58.8901C25.74 59.2801 25.72 59.6601 25.74 60.0501Z"></path>
<path fill="#1F1F21" d="M62.4601 58.8601C62.4401 59.1601 62.4401 59.4401 62.4601 59.7401H64.0501C64.1001 59.8801 64.1101 60.0501 64.0701 60.3001H62.4901C62.4301 60.4801 62.4301 60.9401 62.4901 61.1401H64.3001C64.3401 61.3301 64.3201 61.5001 64.3101 61.6901H61.8401V58.3301H64.3001V58.8701H62.4601V58.8601Z"></path>
<path fill="#1F1F21" d="M16.43 61.6901C16.39 61.4201 16.4 58.4801 16.44 58.3201H18.87V58.8501C18.8 58.8501 18.74 58.8601 18.67 58.8601C18.2 58.8601 17.73 58.8601 17.26 58.8601H17.04V59.7201C17.22 59.7601 17.4 59.7401 17.58 59.7401C17.76 59.7401 17.94 59.7401 18.12 59.7401H18.67V60.2801C18.5 60.3201 18.32 60.2901 18.14 60.3001C17.96 60.3001 17.78 60.3001 17.6 60.3001H17.07C17.02 60.4601 17.01 60.8801 17.05 61.1201C17.24 61.1501 17.44 61.1201 17.64 61.1301C17.85 61.1301 18.05 61.1301 18.26 61.1301H18.88C18.91 61.3201 18.9 61.4901 18.88 61.6801H16.44L16.43 61.6901Z"></path>
<path fill="#1F1F21" d="M8.27009 60.6901V61.6901H7.68009C7.64009 61.5401 7.63009 58.5201 7.68009 58.3201C7.72009 58.3201 7.76009 58.3101 7.81009 58.3101C8.27009 58.3101 8.73009 58.3101 9.18009 58.3101C9.77009 58.3101 10.2501 58.7401 10.3501 59.3201C10.4601 59.9901 10.0501 60.5601 9.37009 60.6501C9.10009 60.6801 8.83009 60.6701 8.56009 60.6801C8.48009 60.6801 8.39009 60.6801 8.28009 60.6801M8.29009 60.1201C8.62009 60.1201 8.93009 60.1201 9.24009 60.1201C9.38009 60.1201 9.52009 60.0501 9.60009 59.9301C9.76009 59.7101 9.78009 59.4701 9.67009 59.2301C9.57009 59.0001 9.38009 58.8701 9.12009 58.8701C8.96009 58.8701 8.80009 58.8701 8.64009 58.8701H8.29009V60.1301V60.1201Z"></path>
<path fill="#1F1F21" d="M45.0599 58.3301H45.6599C45.6599 58.4001 45.6699 58.4601 45.6699 58.5201C45.6699 59.1301 45.6699 59.7301 45.6699 60.3401C45.6699 61.2401 45.0599 61.8101 44.1599 61.7601C44.0199 61.7601 43.8799 61.7401 43.7399 61.7001C43.1899 61.5501 42.7999 61.0901 42.7799 60.5201C42.7599 59.8201 42.7799 59.1101 42.7799 58.4101C42.7799 58.3801 42.7799 58.3601 42.7999 58.3201H43.3999V58.5401C43.3999 59.1101 43.3999 59.6701 43.3999 60.2401C43.3999 60.3401 43.3999 60.4301 43.4199 60.5301C43.4899 60.9601 43.8199 61.2201 44.2499 61.2101C44.6799 61.2001 44.9799 60.9301 45.0399 60.5101C45.0499 60.4101 45.0599 60.3201 45.0599 60.2201C45.0599 59.6701 45.0599 59.1201 45.0599 58.5801V58.3301Z"></path>
<path fill="#1F1F21" d="M88.1799 58.3301C88.7499 59.4501 89.3199 60.5601 89.8999 61.7001H89.2199C89.1499 61.5701 89.0799 61.4301 89.0199 61.2901C88.9799 61.2001 88.9199 61.1701 88.8299 61.1701C88.3799 61.1701 87.9299 61.1701 87.4799 61.1701C87.3699 61.1701 87.3199 61.2101 87.2699 61.3001C87.2099 61.4301 87.1399 61.5701 87.0799 61.7001H86.4099C86.9899 60.5601 87.5599 59.4501 88.1299 58.3301C88.1499 58.3301 88.1699 58.3301 88.1799 58.3301ZM87.6499 60.6101H88.6399C88.4999 60.2501 88.3299 59.9201 88.1499 59.5601C87.9599 59.9201 87.8099 60.2501 87.6399 60.6101"></path>
<path fill="#1F1F21" d="M34.1399 58.3201H36.5799C36.6199 58.4601 36.6299 58.6201 36.5999 58.8601H34.7699C34.7599 59.1601 34.7699 59.4301 34.7699 59.7201C34.9599 59.7601 35.1399 59.7301 35.3199 59.7401C35.4999 59.7401 35.6799 59.7401 35.8599 59.7401H36.4099V60.2901C36.2299 60.3301 36.0499 60.3001 35.8799 60.3101C35.6999 60.3101 35.5199 60.3101 35.3399 60.3101H34.7899C34.7599 60.7801 34.7899 61.2301 34.7699 61.6901H34.1599C34.1599 60.5701 34.1599 59.4601 34.1599 58.3201"></path>
<path fill="#1F1F21" d="M80.2701 61.6901H79.7001C79.6501 61.5201 79.6501 58.5101 79.7001 58.3301H80.2801V61.6901H80.2701Z"></path>
<path fill="#1F1F21" d="M80.7 57.67C80.5 57.82 80.34 57.94 80.18 58.06C80.08 58.13 79.96 58.14 79.71 58.09C79.8 57.98 79.87 57.87 79.95 57.77C80.03 57.67 80.11 57.57 80.2 57.46C80.36 57.53 80.52 57.6 80.71 57.68"></path>
<path fill="#1F1F21" d="M2.36 50.7601C3.07 49.6801 3.55 48.7001 3.81 47.8301L6.61 38.3901L6.16 37.8301H12.26C12.25 38.0101 12.24 38.2501 12.24 38.5501C12.24 38.9801 12.28 39.3801 12.36 39.7301C12.44 40.0801 12.6 40.6201 12.84 41.3301L15.73 50.0701C16.01 50.9401 16.25 51.5801 16.45 51.9901C16.64 52.4001 16.99 52.9301 17.48 53.5701H11.38C11.42 53.2601 11.45 52.9901 11.45 52.7601C11.45 52.4301 11.42 52.1301 11.35 51.8401C11.28 51.5601 11.16 51.1401 10.98 50.5801C10.94 50.4901 10.9 50.4001 10.88 50.3101C10.86 50.2201 10.83 50.1401 10.8 50.0601L9.77 46.9701H4.43L4.18 47.8201C3.99 48.4601 3.89 49.2201 3.89 50.0801C3.89 51.4601 4.14 52.6101 4.63 53.5501H0C0.87 52.7601 1.65 51.8201 2.36 50.7401M9.66 46.6101L7.91 41.3401C7.65 40.5801 7.47 40.0501 7.36 39.7501C7.25 39.4501 7.09 39.1401 6.88 38.8101L4.55 46.6101H9.66Z"></path>
<path fill="#1F1F21" d="M18.6301 53.5801C18.8801 53.0401 19.0401 52.5901 19.1101 52.2201C19.1801 51.8501 19.2101 51.3801 19.2101 50.8001V41.5601C19.2101 41.1401 19.1801 40.7401 19.1101 40.3701C19.0401 40.0001 18.8701 39.6101 18.5801 39.2001C19.5501 39.1701 20.5201 39.0401 21.4801 38.8201C22.4401 38.6001 23.3301 38.2701 24.1401 37.8301V50.0701C24.1401 50.9401 24.1701 51.5801 24.2301 51.9901C24.2901 52.4001 24.4501 52.9301 24.7201 53.5701H18.6201L18.6301 53.5801Z"></path>
<path fill="#1F1F21" d="M34.5199 35.9899C35.2199 36.2099 35.7899 36.5399 36.2199 36.9799C36.6499 37.4199 36.8699 37.9499 36.8699 38.5599C36.8699 39.1299 36.6599 39.5699 36.2399 39.8799C35.8199 40.1899 35.3099 40.3499 34.7199 40.3499C34.2699 40.3499 33.8599 40.2599 33.4799 40.0899C33.0999 39.9199 32.7999 39.6699 32.5899 39.3399C32.8599 39.1599 33.0599 38.9299 33.1999 38.6599C33.3299 38.3799 33.3999 38.0999 33.3999 37.7999C33.3999 37.3099 33.2399 36.8799 32.9199 36.5199C32.5999 36.1599 32.1699 35.9799 31.6299 35.9799C31.0299 35.9799 30.5099 36.1999 30.0599 36.6299C29.6099 37.0599 29.3899 37.6399 29.3899 38.3599C29.3899 38.9999 29.6099 39.5999 30.0599 40.1599C30.5099 40.7199 31.1899 41.1399 32.0999 41.3999H33.6499V41.7799H32.0999V50.0999C32.0999 50.9699 32.1299 51.5999 32.1899 51.9999C32.2499 52.3999 32.4099 52.9299 32.6799 53.5699H26.5799C26.8499 52.9899 27.0099 52.5099 27.0699 52.1399C27.1299 51.7699 27.1599 51.1999 27.1599 50.4399V41.7899H26.1699V41.4099H27.1599C27.1599 40.1999 27.3799 39.1699 27.8099 38.3099C28.2399 37.4499 28.8499 36.7999 29.6099 36.3499C30.3799 35.8999 31.2699 35.6799 32.2899 35.6799C33.0699 35.6799 33.8099 35.7899 34.5099 35.9999"></path>
<path fill="#1F1F21" d="M36.3701 53.5299C35.7501 53.2799 35.2501 52.9099 34.8801 52.4299C34.5101 51.9499 34.3201 51.3899 34.3201 50.7499C34.3201 49.9999 34.5201 49.3899 34.9201 48.9099C35.3201 48.4299 35.8301 48.0599 36.4301 47.7899C37.0301 47.5199 37.8201 47.2399 38.8001 46.9599C39.7601 46.6799 40.5301 46.3999 41.1301 46.1299C41.7301 45.8599 42.2201 45.4999 42.6201 45.0299C43.0201 44.5699 43.2101 43.9699 43.2101 43.2399C43.2001 42.6899 43.0201 42.2599 42.7001 41.9599C42.3701 41.6599 41.9701 41.5099 41.4901 41.5099C41.0101 41.5099 40.5601 41.6699 40.1801 41.9999C39.8001 42.3299 39.6101 42.7899 39.6101 43.3699C39.6101 43.6999 39.6801 43.9999 39.8301 44.2899C39.9801 44.5699 40.2001 44.7999 40.5001 44.9799C40.2901 45.3099 40.0001 45.5599 39.6201 45.7299C39.2401 45.8999 38.8301 45.9899 38.4001 45.9899C37.7701 45.9899 37.2501 45.8399 36.8301 45.5499C36.4101 45.2599 36.2001 44.8299 36.2001 44.2599C36.2001 43.2699 36.6801 42.5099 37.6201 41.9699C38.5701 41.4299 39.7201 41.1599 41.0801 41.1599C42.0801 41.1599 43.0401 41.3199 43.9501 41.6299C44.8601 41.9399 45.6001 42.4099 46.1801 43.0299C46.7501 43.6499 47.0401 44.3999 47.0401 45.2799V50.7299C47.0401 51.2799 47.1001 51.8299 47.2201 52.3499C47.3401 52.8799 47.4801 53.2799 47.6501 53.5499C46.5901 53.1799 45.4801 52.9899 44.3301 52.9899C43.7201 52.9899 43.1401 53.0299 42.5901 53.1199C42.0401 53.2099 41.4101 53.3399 40.6701 53.4999C40.1201 53.6299 39.6701 53.7299 39.3301 53.7899C38.9901 53.8499 38.6601 53.8799 38.3401 53.8799C37.6401 53.8799 36.9801 53.7499 36.3601 53.4999M42.1201 45.8899C41.4301 46.3999 40.8901 46.8299 40.5001 47.1799C40.1001 47.5299 39.7601 47.9699 39.4701 48.4799C39.1801 48.9999 39.0401 49.5799 39.0501 50.2199C39.1001 51.1799 39.4301 51.8599 40.0501 52.2599C40.6701 52.6599 41.3601 52.8299 42.1201 52.7699V45.8899Z"></path>
<path fill="#1F1F21" d="M51.44 53.6099C50.72 53.3899 50.13 53.0699 49.67 52.6199C49.21 52.1799 48.98 51.6299 48.98 50.9699C48.98 50.3899 49.2 49.9399 49.63 49.6099C50.06 49.2899 50.58 49.1299 51.18 49.1299C51.63 49.1299 52.05 49.2199 52.45 49.4099C52.85 49.5999 53.14 49.8499 53.34 50.1799C53.06 50.3299 52.83 50.5499 52.68 50.8399C52.52 51.1299 52.44 51.4399 52.44 51.7699C52.44 52.3799 52.6 52.8499 52.92 53.1699C53.24 53.4899 53.63 53.6499 54.07 53.6499C54.51 53.6499 54.9 53.4999 55.25 53.2099C55.6 52.9199 55.78 52.5499 55.78 52.0999C55.78 51.7599 55.67 51.3999 55.44 51.0199C55.29 50.7399 55.03 50.4299 54.65 50.0999C54.28 49.7699 53.74 49.3499 53.04 48.8199C51.8 47.8899 50.85 47.0999 50.19 46.4299C49.53 45.7699 49.2 45.0899 49.2 44.3999C49.2 43.2499 49.67 42.4199 50.61 41.8999C51.55 41.3799 52.73 41.1299 54.15 41.1299C54.61 41.1299 55.07 41.1499 55.52 41.1999L56.19 41.2899C57.15 41.4599 57.93 41.5399 58.54 41.5399C59.02 41.5399 59.37 41.4899 59.59 41.3799L58.2 44.9199C57.89 43.8099 57.45 42.9799 56.88 42.4099C56.31 41.8399 55.69 41.5599 55.02 41.5599C54.57 41.5599 54.2 41.6799 53.91 41.9299C53.62 42.1799 53.47 42.5199 53.47 42.9499C53.47 43.2899 53.66 43.6399 54.03 43.9799C54.4 44.3199 55.02 44.8099 55.89 45.4399C56.67 45.9899 57.3 46.4699 57.8 46.8699C58.29 47.2699 58.71 47.7299 59.07 48.2399C59.43 48.7499 59.6 49.2699 59.6 49.8099C59.6 50.5999 59.33 51.3099 58.79 51.9299C58.25 52.5499 57.53 53.0399 56.62 53.3899C55.71 53.7399 54.73 53.9199 53.68 53.9199C52.9 53.9199 52.16 53.8099 51.44 53.5899"></path>
<path fill="#1F1F21" d="M63.7499 53.05C62.8199 52.46 62.1299 51.69 61.6499 50.74C61.1799 49.79 60.9399 48.79 60.9399 47.73C60.9399 46.61 61.2099 45.55 61.7499 44.56C62.2899 43.57 63.0799 42.76 64.1199 42.15C65.1599 41.54 66.3899 41.23 67.8299 41.23C68.8899 41.23 69.7799 41.39 70.4999 41.7C71.2199 42.01 71.7499 42.43 72.0999 42.93C72.4499 43.44 72.6299 43.99 72.6299 44.59C72.6299 45.25 72.4199 45.87 71.9999 46.46C71.5799 47.05 70.9899 47.53 70.2199 47.89C69.4499 48.26 68.5599 48.44 67.5599 48.44C67.1299 48.44 66.6599 48.38 66.1499 48.26C66.4499 49.14 66.9199 49.85 67.5699 50.39C68.2199 50.93 68.9299 51.2 69.7099 51.2C70.3499 51.2 70.9499 51.01 71.5199 50.62C72.0799 50.23 72.5499 49.66 72.9399 48.92L73.1199 49.05C72.9399 50.11 72.5199 51.01 71.8699 51.75C71.2099 52.49 70.4499 53.04 69.5799 53.4C68.7099 53.76 67.8799 53.94 67.0899 53.94C65.7899 53.94 64.6799 53.65 63.7499 53.06M68.3999 47.03C68.8099 46.34 69.0199 45.51 69.0399 44.52C69.0399 43.73 68.9099 43.04 68.6599 42.47C68.4099 41.9 68.0999 41.61 67.7399 41.61C67.1299 41.61 66.6399 42.06 66.2899 42.94C65.9399 43.83 65.7599 44.83 65.7599 45.96C65.7599 46.75 65.8499 47.42 66.0299 47.95C66.2499 48.02 66.4599 48.06 66.6399 48.06C67.3999 48.06 67.9899 47.72 68.3999 47.03Z"></path>
<path fill="#1F1F21" d="M82.82 53.5799C83.07 53.0399 83.23 52.5899 83.3 52.2199C83.37 51.8499 83.4 51.3799 83.4 50.7999V44.6599C83.4 43.8499 83.24 43.4499 82.91 43.4499C82.66 43.4499 82.33 43.6799 81.95 44.1299C81.56 44.5899 81.19 45.1799 80.84 45.8999C80.49 46.6199 80.22 47.3599 80.02 48.1099V50.0799C80.02 50.9499 80.05 51.5899 80.11 51.9999C80.17 52.4099 80.33 52.9399 80.6 53.5799H74.5C74.75 53.0399 74.92 52.5899 74.98 52.2199C75.05 51.8499 75.08 51.3799 75.08 50.7999V45.2599C75.08 44.7699 75.05 44.3399 74.99 43.9699C74.93 43.5999 74.75 43.2099 74.45 42.7699C75.42 42.7399 76.39 42.6099 77.35 42.3899C78.31 42.1699 79.2 41.8399 80.01 41.3999V46.9799C80.46 45.7099 81.01 44.6399 81.67 43.7699C82.33 42.8999 83.02 42.2599 83.74 41.8299C84.46 41.3999 85.16 41.1899 85.81 41.1899C86.54 41.1899 87.14 41.4299 87.61 41.9099C88.08 42.3899 88.32 43.0299 88.32 43.8399V50.0699C88.32 50.9399 88.35 51.5799 88.41 51.9899C88.47 52.3999 88.63 52.9299 88.9 53.5699H82.8L82.82 53.5799Z"></path>
<path fill="#1F1F21" d="M92.97 53.3899C91.83 52.9599 91.25 52.0599 91.25 50.6899V42.8199C91.25 42.1899 90.92 41.7199 90.26 41.4099C92.01 41.3499 93.33 40.9999 94.24 40.3599C95.14 39.7199 95.72 38.7299 95.98 37.3999H96.2V41.4099H97.55V41.7899H96.2V50.7099C96.2 51.3999 96.24 51.9399 96.32 52.3499C96.4 52.7499 96.53 53.0599 96.69 53.2799C96.85 53.4999 97.08 53.7199 97.36 53.9399V53.9599C95.57 53.9999 94.1 53.8099 92.96 53.3899"></path>
<path fill="#1F1F21" d="M45.72 7.27001C45.91 7.60001 46.11 7.89001 46.34 8.17001C46.8 8.74001 47.32 9.27001 47.85 9.78001C48.24 10.15 48.63 10.51 49.02 10.88C49.68 11.49 50.34 12.1 50.97 12.74C51.62 13.4 52.23 14.09 52.74 14.88C53.02 15.31 53.26 15.76 53.4 16.26C53.58 16.94 53.48 17.6 53.19 18.24C52.93 18.82 52.56 19.33 52.14 19.8C51.63 20.37 51.05 20.87 50.47 21.37C50.13 21.66 49.78 21.94 49.43 22.22C49.37 22.27 49.37 22.3 49.43 22.35C50 22.87 50.57 23.38 51.09 23.94C51.56 24.44 51.99 24.97 52.29 25.59C52.47 25.96 52.58 26.35 52.58 26.76C52.58 27.36 52.35 27.88 52 28.35C51.96 28.41 51.91 28.46 51.86 28.52C51.83 28.56 51.81 28.57 51.78 28.52C51.18 27.49 50.32 26.68 49.47 25.87C48.42 24.86 47.32 23.9 46.31 22.84C45.91 22.42 45.52 21.99 45.19 21.52C44.85 21.04 44.54 20.56 44.3 20.02C43.96 19.23 43.98 18.46 44.3 17.68C44.56 17.07 44.94 16.54 45.38 16.05C46.06 15.28 46.85 14.62 47.65 13.98C47.8 13.86 47.94 13.74 48.09 13.63C48.16 13.58 48.15 13.55 48.09 13.49C47.58 13.04 47.08 12.58 46.6 12.09C46.09 11.56 45.61 11.01 45.27 10.35C45.08 9.97001 44.95 9.57001 44.93 9.14001C44.91 8.56001 45.12 8.05001 45.44 7.58001C45.51 7.48001 45.59 7.38001 45.69 7.26001M50.93 17.74C50.93 17 50.69 16.29 50.24 15.66C49.76 14.98 49.12 14.44 48.52 13.88C48.47 13.83 48.45 13.85 48.42 13.9C48.3 14.07 48.17 14.25 48.05 14.42C47.6 15.08 47.19 15.77 46.91 16.53C46.68 17.16 46.56 17.82 46.64 18.49C46.73 19.27 47.07 19.95 47.58 20.54C48.03 21.05 48.51 21.52 49.01 21.98C49.06 22.03 49.09 22.03 49.13 21.97C49.29 21.75 49.43 21.53 49.58 21.31C49.91 20.81 50.22 20.3 50.46 19.74C50.73 19.12 50.92 18.48 50.92 17.74"></path>
<path fill="#1F1F21" d="M49.3301 35.8399C49.4201 35.4899 49.4601 35.1599 49.4601 34.8199C49.4601 33.9099 49.2101 33.0699 48.8001 32.2799C48.4301 31.5599 47.9601 30.9199 47.4401 30.2999C46.5401 29.2299 45.5301 28.2699 44.5201 27.2999C43.4501 26.2799 42.3901 25.2499 41.5001 24.0699C40.9501 23.3399 40.4701 22.5599 40.2001 21.6799C39.8801 20.6299 39.9001 19.5899 40.4101 18.5999C40.7401 17.9599 41.2001 17.4399 41.7301 16.9699C41.8601 16.8599 41.9901 16.7499 42.1401 16.6599C42.1001 16.7499 42.0601 16.8399 42.0301 16.9299C41.7801 17.5399 41.6701 18.1699 41.7201 18.8299C41.7701 19.6199 42.0301 20.3399 42.3801 21.0399C42.8001 21.8599 43.3301 22.5899 43.9701 23.2599C44.7301 24.0699 45.5701 24.7999 46.3801 25.5599C47.4101 26.5099 48.4501 27.4699 49.3401 28.5599C49.7801 29.0999 50.1801 29.6699 50.4501 30.3199C50.6001 30.6799 50.7001 31.0599 50.7201 31.4599C50.8001 32.7699 50.4401 33.9599 49.8401 35.0999C49.7201 35.3399 49.5801 35.5699 49.4201 35.7799C49.4001 35.8099 49.3801 35.8499 49.3301 35.8599"></path>
<path fill="#1F1F21" d="M55.4 19.21C55.54 18.91 55.64 18.63 55.72 18.33C55.95 17.4 55.85 16.49 55.53 15.6C55.18 14.65 54.64 13.82 53.99 13.06C53.35 12.3 52.61 11.63 51.88 10.96C51.3 10.43 50.73 9.89 50.16 9.36C49.63 8.87 49.13 8.36 48.65 7.82C48.14 7.25 47.66 6.64 47.29 5.96C46.89 5.23 46.76 4.45 46.83 3.63C46.94 2.38 47.38 1.24 48.06 0.19C48.1 0.12 48.15 0.06 48.22 0C48.2 0.11 48.18 0.21 48.16 0.32C47.96 1.47 48.22 2.54 48.75 3.57C49.12 4.3 49.6 4.95 50.13 5.58C50.76 6.33 51.45 7.03 52.16 7.72C52.99 8.53 53.84 9.31 54.64 10.15C55.38 10.93 56.08 11.74 56.65 12.66C57.03 13.29 57.34 13.94 57.49 14.67C57.73 15.81 57.49 16.85 56.83 17.8C56.45 18.34 55.98 18.79 55.47 19.2C55.47 19.2 55.45 19.2 55.42 19.23"></path>
</svg>
